<?xml version="1.0" encoding="utf-8"?>
<!-- Generator: Adobe Illustrator 16.0.0, SVG Export Plug-In . SVG Version: 6.00 Build 0)  -->
<!DOCTYPE svg PUBLIC "-//W3C//DTD SVG 1.1//EN" "http://www.w3.org/Graphics/SVG/1.1/DTD/svg11.dtd">
<svg version="1.1" id="图层_1" xmlns="http://www.w3.org/2000/svg" xmlns:xlink="http://www.w3.org/1999/xlink" x="0px" y="0px"
	 width="48px" height="45.996px" viewBox="0 0 48 45.996" enable-background="new 0 0 48 45.996" xml:space="preserve">
<g>
	<path d="M32.191,32.009c-1.387-0.569-2.14-1.176-2.176-2.573c-0.017-1.391,0.467-1.369,0.959-2.06
		c0.489-0.69,0.84-1.252,1.438-2.78c0.6-1.527,0.464-3.148,1.09-4.229c2.043-4.458,1.382-4.939,0.995-6.542
		c0.413-3.541,0.517-4.586,0.378-5.958C34.736,6.492,32.542,0,24.252,0S13.125,5.659,12.994,8.812
		c0.184,2.179,0.518,5.029,0.518,5.029c-0.096,0.518-0.271,0.909-0.337,1.27c-0.424,2.324,1.525,5.696,1.525,5.696
		c0.108,0.264,0.425,4.19,1.856,5.944c1.621,1.985,1.491,2.638,1.444,3.575c-0.025,0.505-0.51,0.857-2.022,1.619
		C1,36.436,0.285,39.996,0.269,40.277C0.253,40.561,0,45.996,0,45.996h48c0,0-0.012-2.059-0.21-5.676
		C47.592,36.701,34.859,32.911,32.191,32.009z"/>
</g>
</svg>
