<?xml version="1.0" standalone="no"?>
<svg width="64" height="64" viewBox="0 0 288 384" version="1.1" xmlns="http://www.w3.org/2000/svg">
  <path d="M220 269c38 0 68 -33 68 -71c0 -29 -19 -56 -45 -66l-55 -80c-2 -2 -5 -4 -8 -4c-5 0 -8 3 -8 8c0 2 1 4 2 6l46 66v0h-35l-31 -44c-2 -2 -4 -4 -7 -4c-5 0 -9 3 -9 8c0 2 1 3 2 5l25 35h-37l-53 -76c-2 -2 -4 -4 -7 -4c-5 0 -9 3 -9 8c0 2 2 4 3 6l46 66h-36l-32 -44 c-2 -2 -4 -4 -7 -4c-5 0 -8 3 -8 8c0 2 1 4 2 6l25 34c-29 2 -52 27 -52 56c0 28 22 58 50 60c0 3 -1 5 -1 8c0 46 31 84 82 84c45 0 73 -31 81 -68c3 0 5 1 8 1z" transform="matrix(1,0,0,-1,0,384)"/>
</svg>