<?xml version="1.0" standalone="no"?>
<svg width="64" height="64" viewBox="0 0 512 384" version="1.1" xmlns="http://www.w3.org/2000/svg">
  <path d="M224 416c124 0 224 -100 224 -224s-100 -224 -224 -224c-22 0 -44 3 -64 9c8 14 18 31 23 48c3 10 16 62 16 62c8 -15 30 -28 54 -28c72 0 121 65 121 153c0 66 -56 129 -142 129c-106 0 -160 -76 -160 -140c0 -39 15 -73 46 -86c5 -2 10 0 12 6c1 4 3 14 4 18 c2 6 1 7 -3 12c-9 11 -15 24 -15 44c0 57 42 107 110 107c60 0 94 -36 94 -85c0 -65 -29 -119 -71 -119c-24 0 -42 19 -36 43c7 28 20 59 20 79c0 18 -10 34 -30 34c-24 0 -43 -25 -43 -58c0 -21 7 -36 7 -36s-25 -104 -29 -122c-4 -17 -5 -35 -4 -51 c-79 35 -134 113 -134 205c0 124 100 224 224 224z" transform="matrix(1,0,0,-1,0,384)"/>
</svg>