<?xml version="1.0" standalone="no"?>
<svg width="64" height="64" viewBox="0 0 416 384" version="1.1" xmlns="http://www.w3.org/2000/svg">
  <path d="M208 400c115 0 208 -93 208 -208s-93 -208 -208 -208s-208 93 -208 208s93 208 208 208zM399 192c0 55 -24 105 -62 140c-14 -34 -31 -65 -52 -95c15 -12 31 -21 49 -29c21 -9 43 -14 65 -16v0zM325 343c-32 25 -73 40 -117 40v0c2 -22 6 -44 15 -65 c10 -25 26 -47 45 -66c2 -1 2 -3 4 -4c20 29 38 60 52 93c0 1 1 1 1 2zM192 382c-51 -4 -96 -29 -128 -65c64 -28 121 -69 169 -119c11 12 21 24 30 37c-40 37 -67 89 -71 147zM233 174c-15 -16 -31 -30 -48 -44c28 -35 45 -79 47 -127c33 4 63 17 88 35 c-22 50 -51 95 -87 136zM214 178l8 8l-10 10c-46 46 -99 82 -158 108c-18 -25 -31 -55 -35 -88c62 -3 116 -31 155 -74c14 11 27 23 40 36zM18 200c0 -3 -1 -5 -1 -8c0 -45 16 -87 43 -120c36 16 71 36 102 60l-7 7c-19 19 -41 35 -66 45c-22 9 -46 15 -71 16zM71 59 c35 -36 83 -58 137 -58c3 0 5 1 8 1c-1 25 -6 48 -16 71c-7 17 -17 33 -28 47c-31 -24 -65 -45 -101 -61zM333 48c37 32 61 77 65 128c-46 3 -89 21 -123 48c-10 -13 -20 -26 -31 -38c36 -41 67 -87 89 -138z" transform="matrix(1,0,0,-1,0,384)"/>
</svg>