<?xml version="1.0" standalone="no"?>
<svg width="64" height="64" viewBox="0 0 320 384" version="1.1" xmlns="http://www.w3.org/2000/svg">
  <path d="M32 192h256l-128 -224zM307 275c8 -5 13 -13 13 -23c0 -16 -14 -28 -30 -28h-4h-252h-4c-16 0 -30 13 -30 28c0 10 6 18 14 23c1 0 1 2 2 2c4 3 7 7 8 12v1c-2 6 -2 12 -2 18c0 42 34 76 76 76c8 0 16 -2 23 -4c-3 -12 -4 -31 -4 -31c2 15 11 29 11 29c18 23 46 38 77 38 c53 0 96 -43 96 -96c0 -11 -2 -21 -5 -30v-1c0 -4 4 -9 8 -12c1 0 2 -2 3 -2z" transform="matrix(1,0,0,-1,0,384)"/>
</svg>