<?xml version="1.0" standalone="no"?>
<svg width="64" height="64" viewBox="0 0 256 384" version="1.1" xmlns="http://www.w3.org/2000/svg">
  <path d="M191 366c12 -10 37 -30 37 -68c0 -37 -21 -55 -43 -72c-7 -7 -15 -13 -15 -24s8 -17 14 -22l18 -14c23 -19 43 -36 43 -71c0 -47 -47 -95 -135 -95c-74 0 -110 35 -110 72c0 18 10 44 40 62c32 19 75 21 98 23c-7 9 -16 18 -16 34c0 9 2 14 5 20c-6 0 -11 -1 -16 -1 c-54 0 -85 40 -85 79c0 23 11 48 33 67c29 24 63 28 91 28h106l-33 -18h-32zM155 142c-4 1 -7 1 -12 1s-32 -1 -54 -8c-11 -4 -44 -16 -44 -52s36 -62 91 -62c49 0 75 24 75 55c0 26 -17 39 -56 66zM170 238c12 12 13 28 13 37c0 36 -22 92 -65 92c-13 0 -28 -6 -36 -16 c-9 -11 -11 -25 -11 -38c0 -34 20 -89 64 -89c13 0 27 6 35 14z" transform="matrix(1,0,0,-1,0,384)"/>
</svg>