<?xml version="1.0" standalone="no"?>
<svg width="64" height="64" viewBox="0 0 320 384" version="1.1" xmlns="http://www.w3.org/2000/svg">
  <path d="M238 294v0c25 0 52 -14 71 -39c-63 -36 -53 -128 11 -153c-9 -20 -13 -28 -24 -46c-16 -25 -37 -56 -65 -56h-1c-24 0 -31 16 -63 16v0c-33 0 -40 -16 -64 -16h-1c-28 0 -48 28 -64 53c-44 69 -48 150 -21 193c19 30 50 48 78 48c29 0 47 -16 71 -16c23 0 38 16 72 16z M230 384v0c3 -23 -6 -46 -18 -62c-13 -17 -35 -30 -56 -30h-1c-4 22 6 44 18 60c14 17 37 31 57 32z" transform="matrix(1,0,0,-1,0,384)"/>
</svg>