<?xml version="1.0" standalone="no"?>
<svg width="64" height="64" viewBox="0 0 512 384" version="1.1" xmlns="http://www.w3.org/2000/svg">
  <path d="M157 192c0 37 30 67 67 67s67 -30 67 -67s-30 -67 -67 -67s-67 30 -67 67zM445 230c2 -12 3 -25 3 -38c0 -106 -74 -195 -174 -218c-10 -2 -20 -4 -30 -5c-7 -1 -13 -1 -20 -1c-8 0 -17 0 -25 1v0v0v0v1l102 177c8 13 13 28 13 45c0 27 -13 50 -32 67h156 c3 -9 5 -19 7 -29v0c-2 10 -4 20 -7 29v0c3 -9 5 -19 7 -29v0zM224 103c10 0 20 2 29 5l-78 -135v0c-42 9 -79 30 -108 59c-42 41 -67 97 -67 160c0 31 6 61 18 88c7 16 16 31 26 45v0l103 -178c16 -27 43 -44 77 -44zM59 343v0v1c24 26 55 47 90 59c23 8 49 13 75 13 c73 0 138 -36 179 -90h1c10 -14 18 -29 25 -44v0c-7 15 -15 30 -25 44h-1c10 -14 19 -29 26 -44h-205c-44 0 -79 -32 -87 -72z" transform="matrix(1,0,0,-1,0,384)"/>
</svg>